<svg width="40" height="40" viewBox="0 0 40 40" fill="none" xmlns="http://www.w3.org/2000/svg">
<path d="M7.86667 4.44444C8 6.42222 8.33333 8.35556 8.86667 10.2L6.2 12.8667C5.28889 10.2 4.71111 7.37778 4.51111 4.44444H7.86667ZM29.7778 31.1556C31.6667 31.6889 33.6 32.0222 35.5556 32.1556V35.4667C32.6222 35.2667 29.8 34.6889 27.1111 33.8L29.7778 31.1556ZM10 0H2.22222C1 0 0 1 0 2.22222C0 23.0889 16.9111 40 37.7778 40C39 40 40 39 40 37.7778V30.0222C40 28.8 39 27.8 37.7778 27.8C35.0222 27.8 32.3333 27.3556 29.8444 26.5333C29.6222 26.4444 29.3778 26.4222 29.1556 26.4222C28.5778 26.4222 28.0222 26.6444 27.5778 27.0667L22.6889 31.9556C16.4 28.7333 11.2444 23.6 8.04445 17.3111L12.9333 12.4222C13.5556 11.8 13.7333 10.9333 13.4889 10.1556C12.6667 7.66667 12.2222 5 12.2222 2.22222C12.2222 1 11.2222 0 10 0Z" fill="#00A962"/>
</svg>
