<svg width="15" height="20" viewBox="0 0 15 20" fill="none" xmlns="http://www.w3.org/2000/svg">
<path d="M13.0417 2H12.25V0H10.6667V2H4.33333V0H2.75V2H1.95833C1.07958 2 0.382917 2.9 0.382917 4L0.375 18C0.375 19.1 1.07958 20 1.95833 20H13.0417C13.9125 20 14.625 19.1 14.625 18V4C14.625 2.9 13.9125 2 13.0417 2ZM13.0417 18H1.95833V8H13.0417V18ZM5.125 12H3.54167V10H5.125V12ZM8.29167 12H6.70833V10H8.29167V12ZM11.4583 12H9.875V10H11.4583V12ZM5.125 16H3.54167V14H5.125V16ZM8.29167 16H6.70833V14H8.29167V16ZM11.4583 16H9.875V14H11.4583V16Z" fill="#9699A0"/>
</svg>
